<svg width="19" height="20" viewBox="0 0 19 20" fill="none" xmlns="http://www.w3.org/2000/svg">
<path d="M15.9422 0C16.4544 4.31832e-05 16.9493 0.193273 17.3361 0.544172C17.7229 0.895072 17.9754 1.38006 18.0474 1.91L18.0655 2.08333L18.9958 17.6389C19.0309 18.2226 18.8445 18.7972 18.4769 19.2382C18.1092 19.6791 17.5901 19.9509 17.032 19.9944L16.8725 20H2.12648C1.56689 20 1.02985 19.7696 0.631781 19.3586C0.233715 18.9476 0.00671499 18.3892 0 17.8044L0.00318973 17.6389L0.933523 2.08333C0.965518 1.54897 1.18105 1.04464 1.54049 0.663096C1.89993 0.281554 2.3791 0.0484546 2.88988 0.00666671L3.05574 0H15.9422ZM15.9422 2.22222H3.05574L2.12541 17.7778H16.8725L15.9432 2.22222H15.9422ZM12.6887 4.44444C12.9707 4.44444 13.2411 4.56151 13.4405 4.76988C13.6399 4.97826 13.7519 5.26087 13.7519 5.55556C13.7519 6.7343 13.3038 7.86476 12.5063 8.69825C11.7087 9.53175 10.6269 10 9.49896 10C8.37101 10 7.28926 9.53175 6.49167 8.69825C5.69409 7.86476 5.24601 6.7343 5.24601 5.55556C5.24601 5.26087 5.35803 4.97826 5.55743 4.76988C5.75682 4.56151 6.02726 4.44444 6.30925 4.44444C6.59124 4.44444 6.86168 4.56151 7.06107 4.76988C7.26047 4.97826 7.37249 5.26087 7.37249 5.55556C7.37002 6.1322 7.58215 6.68727 7.96405 7.1035C8.34596 7.51973 8.86774 7.76452 9.41916 7.78616C9.97058 7.80779 10.5084 7.60458 10.9191 7.21945C11.3298 6.83432 11.5812 6.29744 11.6201 5.72222L11.6254 5.55556C11.6254 5.26087 11.7375 4.97826 11.9369 4.76988C12.1363 4.56151 12.4067 4.44444 12.6887 4.44444Z" fill="#08090B"/>
</svg>
