<svg width="18" height="18" viewBox="0 0 18 18" fill="none" xmlns="http://www.w3.org/2000/svg">
<path d="M12.8255 11.2865H12.015L11.7277 11.0094C12.7679 9.80283 13.3397 8.2624 13.3385 6.66927C13.3385 5.35022 12.9474 4.06078 12.2146 2.96403C11.4817 1.86727 10.4401 1.01245 9.22149 0.507671C8.00284 0.00288969 6.66187 -0.129184 5.36816 0.128151C4.07445 0.385486 2.8861 1.02067 1.95339 1.95339C1.02067 2.8861 0.385486 4.07445 0.128151 5.36816C-0.129184 6.66187 0.00288969 8.00284 0.507671 9.22149C1.01245 10.4401 1.86727 11.4817 2.96403 12.2146C4.06078 12.9474 5.35022 13.3385 6.66927 13.3385C8.3212 13.3385 9.83974 12.7332 11.0094 11.7277L11.2865 12.015V12.8255L16.4167 17.9455L17.9455 16.4167L12.8255 11.2865ZM6.66927 11.2865C4.11443 11.2865 2.05209 9.22412 2.05209 6.66927C2.05209 4.11443 4.11443 2.05209 6.66927 2.05209C9.22412 2.05209 11.2865 4.11443 11.2865 6.66927C11.2865 9.22412 9.22412 11.2865 6.66927 11.2865Z" fill="#08090B"/>
</svg>
