<svg style="display:none !important;" xmlns="http://www.w3.org/2000/svg">

    <symbol id="search-icon" width="18" height="18" viewBox="0 0 18 18" fill="none">
        <path d="M12.8255 11.2865H12.015L11.7277 11.0094C12.7679 9.80283 13.3397 8.2624 13.3385 6.66927C13.3385
        5.35022 12.9474 4.06078 12.2146 2.96403C11.4817 1.86727 10.4401 1.01245 9.22149 0.507671C8.00284 0.00288969
        6.66187 -0.129184 5.36816 0.128151C4.07445 0.385486 2.8861 1.02067 1.95339 1.95339C1.02067 2.8861 0.385486
        4.07445 0.128151 5.36816C-0.129184 6.66187 0.00288969 8.00284 0.507671 9.22149C1.01245 10.4401 1.86727 11.4817
        2.96403 12.2146C4.06078 12.9474 5.35022 13.3385 6.66927 13.3385C8.3212 13.3385 9.83974 12.7332 11.0094
        11.7277L11.2865 12.015V12.8255L16.4167 17.9455L17.9455 16.4167L12.8255 11.2865ZM6.66927 11.2865C4.11443
        11.2865 2.05209 9.22412 2.05209 6.66927C2.05209 4.11443 4.11443 2.05209 6.66927 2.05209C9.22412 2.05209
        11.2865 4.11443 11.2865 6.66927C11.2865 9.22412 9.22412 11.2865 6.66927 11.2865Z" fill="currentColor"/>
    </symbol>

    <symbol id="phone-icon" width="18" height="18" viewBox="0 0 18 18" fill="none">
        <path d="M3.54 2C3.6 2.89 3.75 3.76 3.99 4.59L2.79 5.79C2.38 4.59 2.12 3.32 2.03 2H3.54ZM13.4 14.02C14.25 14.26
        15.12 14.41 16 14.47V15.96C14.68 15.87 13.41 15.61 12.2 15.21L13.4 14.02ZM4.5 0H1C0.45 0 0 0.45 0 1C0 10.39 7.61 18
        17 18C17.55 18 18 17.55 18 17V13.51C18 12.96 17.55 12.51 17 12.51C15.76 12.51 14.55 12.31 13.43 11.94C13.3307 11.904
         13.2256 11.887 13.12 11.89C12.86 11.89 12.61 11.99 12.41 12.18L10.21 14.38C7.37543 12.9304 5.06961 10.6246 3.62
         7.79L5.82 5.59C6.1 5.31 6.18 4.92 6.07 4.57C5.69065 3.41806 5.49821 2.2128 5.5 1C5.5 0.45 5.05 0 4.5 0Z"
              fill="currentColor"/>
    </symbol>

    <symbol id="account-icon" width="20" height="20" viewBox="0 0 20 20" fill="none">
        <path d="M10 0C8.68678 0 7.38642 0.258658 6.17317 0.761205C4.95991 1.26375 3.85752 2.00035 2.92893 2.92893C1.05357
        4.8043 0 7.34784 0 10C0 12.6522 1.05357 15.1957 2.92893 17.0711C3.85752 17.9997 4.95991 18.7362 6.17317 19.2388C7.38642
        19.7413 8.68678 20 10 20C12.6522 20 15.1957 18.9464 17.0711 17.0711C18.9464 15.1957 20 12.6522 20 10C20 8.68678 19.7413
        7.38642 19.2388 6.17317C18.7362 4.95991 17.9997 3.85752 17.0711 2.92893C16.1425 2.00035 15.0401 1.26375 13.8268
        0.761205C12.6136 0.258658 11.3132 0 10 0ZM5.07 16.28C5.5 15.38 8.12 14.5 10 14.5C11.88 14.5 14.5 15.38 14.93
        16.28C13.5294 17.396 11.7909 18.0026 10 18C8.14 18 6.43 17.36 5.07 16.28ZM16.36 14.83C14.93 13.09 11.46 12.5 10
        12.5C8.54 12.5 5.07 13.09 3.64 14.83C2.57618 13.4446 1.99967 11.7467 2 10C2 5.59 5.59 2 10 2C14.41 2 18 5.59 18
        10C18 11.82 17.38 13.5 16.36 14.83ZM10 4C8.06 4 6.5 5.56 6.5 7.5C6.5 9.44 8.06 11 10 11C11.94 11 13.5 9.44 13.5
        7.5C13.5 5.56 11.94 4 10 4ZM10 9C9.60218 9 9.22064 8.84196 8.93934 8.56066C8.65804 8.27936 8.5 7.89782 8.5 7.5C8.5
        7.10218 8.65804 6.72064 8.93934 6.43934C9.22064 6.15804 9.60218 6 10 6C10.3978 6 10.7794 6.15804 11.0607 6.43934C11.342
        6.72064 11.5 7.10218 11.5 7.5C11.5 7.89782 11.342 8.27936 11.0607 8.56066C10.7794 8.84196 10.3978 9 10 9Z"
              fill="currentColor"/>
    </symbol>

    <symbol id="cart-icon" width="19" height="20" viewBox="0 0 19 20" fill="none">
        <path d="M15.9422 0C16.4544 4.31832e-05 16.9493 0.193273 17.3361 0.544172C17.7229 0.895072 17.9754 1.38006
        18.0474 1.91L18.0655 2.08333L18.9958 17.6389C19.0309 18.2226 18.8445 18.7972 18.4769 19.2382C18.1092 19.6791
        17.5901 19.9509 17.032 19.9944L16.8725 20H2.12648C1.56689 20 1.02985 19.7696 0.631781 19.3586C0.233715 18.9476
        0.00671499 18.3892 0 17.8044L0.00318973 17.6389L0.933523 2.08333C0.965518 1.54897 1.18105 1.04464 1.54049
        0.663096C1.89993 0.281554 2.3791 0.0484546 2.88988 0.00666671L3.05574 0H15.9422ZM15.9422 2.22222H3.05574L2.12541
        17.7778H16.8725L15.9432 2.22222H15.9422ZM12.6887 4.44444C12.9707 4.44444 13.2411 4.56151 13.4405 4.76988C13.6399
        4.97826 13.7519 5.26087 13.7519 5.55556C13.7519 6.7343 13.3038 7.86476 12.5063 8.69825C11.7087 9.53175 10.6269
        10 9.49896 10C8.37101 10 7.28926 9.53175 6.49167 8.69825C5.69409 7.86476 5.24601 6.7343 5.24601 5.55556C5.24601
        5.26087 5.35803 4.97826 5.55743 4.76988C5.75682 4.56151 6.02726 4.44444 6.30925 4.44444C6.59124 4.44444 6.86168
        4.56151 7.06107 4.76988C7.26047 4.97826 7.37249 5.26087 7.37249 5.55556C7.37002 6.1322 7.58215 6.68727 7.96405
        7.1035C8.34596 7.51973 8.86774 7.76452 9.41916 7.78616C9.97058 7.80779 10.5084 7.60458 10.9191 7.21945C11.3298
        6.83432 11.5812 6.29744 11.6201 5.72222L11.6254 5.55556C11.6254 5.26087 11.7375 4.97826 11.9369 4.76988C12.1363
        4.56151 12.4067 4.44444 12.6887 4.44444Z"
              fill="currentColor"/>
    </symbol>
</svg>